Coordinates
version=1
nRows=5
nColumns=40
inDegrees=yes

Units are S.I. units (second, meters, Newtons, ...)
Angles are in degrees.

endheader
time	pelvis_tilt	pelvis_list	pelvis_rotation	pelvis_tx	pelvis_ty	pelvis_tz	hip_flexion_r	hip_adduction_r	hip_rotation_r	knee_angle_r	knee_angle_r_beta	ankle_angle_r	subtalar_angle_r	mtp_angle_r	hip_flexion_l	hip_adduction_l	hip_rotation_l	knee_angle_l	knee_angle_l_beta	ankle_angle_l	subtalar_angle_l	mtp_angle_l	lumbar_extension	lumbar_bending	lumbar_rotation	arm_flex_r	arm_add_r	arm_rot_r	elbow_flex_r	pro_sup_r	wrist_flex_r	wrist_dev_r	arm_flex_l	arm_add_l	arm_rot_l	elbow_flex_l	pro_sup_l	wrist_flex_l	wrist_dev_l
     15.17114286	     -5.94101353	     -7.13698459	      2.86592283	      1.00914005	      0.91274263	      0.48611561	     -2.11955225	      5.78923031	    -16.12726651	      8.06621422	      8.06621422	     17.52599267	      6.58275435	     -2.84127987	     36.12401152	     -8.82821767	     -0.91145013	     22.34708014	     22.34708014	      5.44417362	    -10.89527165	     10.23633556	    -10.37725630	      7.21131287	      3.32404859	     45.94794303	    -16.22211760	     -2.08001724	     78.47966658	     44.68847071	      0.00000000	      0.00000000	    -19.80853883	     -7.38013670	      0.81480320	     25.68740502	     46.04107438	      0.00000000	      0.00000000
     15.18228571	     -6.01931733	     -7.12990046	      2.64147123	      1.01076419	      0.91122018	      0.48461796	     -2.47881260	      5.55933678	    -16.07831708	      8.58246828	      8.58246828	     18.36941672	      6.95056785	     -1.98815887	     35.62943256	     -8.80034199	     -1.39802260	     22.44973310	     22.44973310	      3.49513741	    -11.94691797	      7.70345357	    -10.14058444	      7.16998621	      3.73801204	     45.23766782	    -16.44615859	     -2.49930180	     81.55156991	     44.64708102	      0.00000000	      0.00000000	    -20.51520210	     -7.46404825	      1.66493196	     26.13344049	     45.87002951	      0.00000000	      0.00000000
     15.19342857	     -6.10234337	     -7.09294388	      2.45190840	      1.01222634	      0.90985096	      0.48298269	     -2.74462710	      5.28390861	    -15.88136770	      9.19987323	      9.19987323	     18.86754530	      6.92388552	     -2.05374686	     35.34959354	     -8.75817874	     -1.75588645	     23.02164848	     23.02164848	      2.70119316	    -12.46162270	      7.41911918	     -9.87006526	      7.11199030	      3.33649182	     45.20512309	    -15.75211443	     -2.41075932	     82.88092057	     44.61069872	      0.00000000	      0.00000000	    -21.21610115	     -7.20937676	      1.91929697	     25.79786591	     45.81533708	      0.00000000	      0.00000000
     15.20457143	     -6.11884033	     -6.96287992	      2.23224463	      1.01374234	      0.90890648	      0.48123550	     -3.12393997	      4.90640673	    -15.68200099	      9.72782227	      9.72782227	     19.20321563	      6.92746252	     -2.11454548	     35.03028407	     -8.65144588	     -2.08819246	     23.74578858	     23.74578858	      2.21857582	    -13.00793107	      7.19850435	     -9.66842032	      6.89205416	      3.15873235	     44.91236441	    -15.42756900	     -2.35873648	     83.75003900	     44.58409830	      0.00000000	      0.00000000	    -21.62735268	     -7.02894762	      2.02842784	     25.61830747	     45.78977525	      0.00000000	      0.00000000
     15.21571429	     -6.28494349	     -6.82739286	      2.07072502	      1.01484701	      0.90802245	      0.47922904	     -2.94911609	      4.38207453	    -15.65164435	     10.97482495	     10.97482495	     19.68741606	      6.84748017	     -2.18670899	     34.86707284	     -8.44414221	     -2.10693962	     24.36471068	     24.36471068	      1.64205198	    -13.72895701	      6.49464269	     -9.45301974	      6.76217449	      2.76587959	     44.27036704	    -14.93381499	     -2.34127341	     86.22155029	     44.51264658	      0.00000000	      0.00000000	    -21.89352121	     -6.76230209	      2.26024788	     25.38798946	     45.74698613	      0.00000000	      0.00000000
